<svg id="visual" viewBox="0 0 1855 940" width="1855" height="940" xmlns="http://www.w3.org/2000/svg" xmlns:xlink="http://www.w3.org/1999/xlink" version="1.1"><path d="M0 385L51.5 397.3C103 409.7 206 434.3 309 479C412 523.7 515 588.3 618.2 596.8C721.3 605.3 824.7 557.7 927.8 509.5C1031 461.3 1134 412.7 1237 432.7C1340 452.7 1443 541.3 1546 529C1649 516.7 1752 403.3 1803.5 346.7L1855 290L1855 941L1803.5 941C1752 941 1649 941 1546 941C1443 941 1340 941 1237 941C1134 941 1031 941 927.8 941C824.7 941 721.3 941 618.2 941C515 941 412 941 309 941C206 941 103 941 51.5 941L0 941Z" fill="#001220"></path></svg>